<svg xmlns="http://www.w3.org/2000/svg" viewBox="0 0 1440 920" role="img" aria-labelledby="title desc">
  <title id="title">Latest full-suite average model leaderboard</title>
  <desc id="desc">Seven model routes compared by average deterministic score, scenarios passed, and model cost across repeated runs of the same fourteen security tool-behavior scenarios. GPT-5.6 Sol leads at 414.3 of 425. DeepSeek V4 Flash averages 410.3 for 0.004735 dollars.</desc>
  <defs>
    <linearGradient id="rule" x1="0" x2="1"><stop stop-color="#00f5ee"/><stop offset=".5" stop-color="#b8ff5f"/><stop offset="1" stop-color="#ff6b9d"/></linearGradient>
    <linearGradient id="bar" x1="0" x2="1"><stop stop-color="#078b88"/><stop offset="1" stop-color="#00f5ee"/></linearGradient>
    <linearGradient id="best" x1="0" x2="1"><stop stop-color="#6dbd27"/><stop offset="1" stop-color="#b8ff5f"/></linearGradient>
    <filter id="glow" x="-30%" y="-70%" width="160%" height="240%"><feGaussianBlur stdDeviation="4" result="b"/><feMerge><feMergeNode in="b"/><feMergeNode in="SourceGraphic"/></feMerge></filter>
    <style>text{font-family:ui-sans-serif,system-ui,-apple-system,BlinkMacSystemFont,"Segoe UI",sans-serif;fill:#f7fbff}.title{font-size:36px;font-weight:820}.sub{font-size:17px;fill:#a7bbc6}.head{font-size:13px;font-weight:800;letter-spacing:1.2px;fill:#9eb4be}.label{font-size:18px;font-weight:750}.value{font-size:14px;font-weight:800;font-variant-numeric:tabular-nums}.meta{font-size:12px;fill:#91a7b2}.note{font-size:13px;fill:#91a7b2}.grid{stroke:#26353e;stroke-width:.75;stroke-dasharray:3 8;shape-rendering:crispEdges}.track{fill:#111b22}.score{fill:url(#bar)}.winner{fill:url(#best)}.pill{fill:#101a20;stroke:#2b3e49}</style>
  </defs>
  <rect width="1440" height="920" rx="24" fill="#05080b"/><rect x="32" y="28" width="1376" height="864" rx="20" fill="#0a1015" stroke="#20303a"/><rect x="32" y="28" width="1376" height="4" rx="2" fill="url(#rule)"/>
  <text class="title" x="72" y="84">The current model leaderboard</text><text class="sub" x="72" y="116">Average of complete 14-scenario runs · same 425-point scorer · model performance and cost</text>
  <text class="head" x="72" y="182">MODEL ROUTE</text><text class="head" x="344" y="182">AVERAGE DETERMINISTIC SCORE</text><text class="head" x="1035" y="182" text-anchor="middle">AVG PASSED</text><text class="head" x="1260" y="182" text-anchor="middle">AVG COST</text>
  <g transform="translate(344 216)">
    <g class="grid"><line x1="0" y1="0" x2="0" y2="488"/><line x1="140" y1="0" x2="140" y2="488"/><line x1="280" y1="0" x2="280" y2="488"/><line x1="420" y1="0" x2="420" y2="488"/><line x1="560" y1="0" x2="560" y2="488"/></g>
    <g class="meta" text-anchor="middle"><text x="0" y="520">380</text><text x="140" y="520">391</text><text x="280" y="520">403</text><text x="420" y="520">414</text><text x="560" y="520">425 points</text></g>
    <g transform="translate(0 4)"><text class="label" x="-30" y="28" text-anchor="end">GPT-5.6 Sol</text><rect class="track" width="560" height="44" rx="8"/><rect class="winner" width="425" height="44" rx="8" filter="url(#glow)"/><text class="value" x="548" y="28" text-anchor="end">414.3 / 425 · 97.49%</text><g transform="translate(650 1)"><rect class="pill" width="104" height="42" rx="21"/><text class="value" x="52" y="27" text-anchor="middle">12.67 / 14</text></g><g transform="translate(784 1)"><rect class="pill" width="236" height="42" rx="10"/><text class="value" x="118" y="27" text-anchor="middle">$0.465044</text></g></g>
    <g transform="translate(0 72)"><text class="label" x="-30" y="28" text-anchor="end">Gemini 3.5 Flash</text><rect class="track" width="560" height="44" rx="8"/><rect class="score" width="388" height="44" rx="8"/><text class="value" x="548" y="28" text-anchor="end">411.3 / 425 · 96.78%</text><g transform="translate(650 1)"><rect class="pill" width="104" height="42" rx="21"/><text class="value" x="52" y="27" text-anchor="middle">11.67 / 14</text></g><g transform="translate(784 1)"><rect class="pill" width="236" height="42" rx="10"/><text class="value" x="118" y="27" text-anchor="middle">$0.538653</text></g></g>
    <g transform="translate(0 140)"><text class="label" x="-30" y="28" text-anchor="end">DeepSeek V4 Flash</text><rect class="track" width="560" height="44" rx="8"/><rect class="score" width="375" height="44" rx="8"/><text class="value" x="548" y="28" text-anchor="end">410.3 / 425 · 96.55%</text><g transform="translate(650 1)"><rect class="pill" width="104" height="42" rx="21"/><text class="value" x="52" y="27" text-anchor="middle">10.67 / 14</text></g><g transform="translate(784 1)"><rect class="pill" width="236" height="42" rx="10"/><text class="value" x="118" y="27" text-anchor="middle">$0.004735</text></g></g>
    <g transform="translate(0 208)"><text class="label" x="-30" y="28" text-anchor="end">GPT-5.6 Terra</text><rect class="track" width="560" height="44" rx="8"/><rect class="score" width="318" height="44" rx="8"/><text class="value" x="548" y="28" text-anchor="end">405.7 / 425 · 95.45%</text><g transform="translate(650 1)"><rect class="pill" width="104" height="42" rx="21"/><text class="value" x="52" y="27" text-anchor="middle">12.00 / 14</text></g><g transform="translate(784 1)"><rect class="pill" width="236" height="42" rx="10"/><text class="value" x="118" y="27" text-anchor="middle">$0.180501</text></g></g>
    <g transform="translate(0 276)"><text class="label" x="-30" y="28" text-anchor="end">DeepSeek V4 Pro</text><rect class="track" width="560" height="44" rx="8"/><rect class="score" width="249" height="44" rx="8"/><text class="value" x="548" y="28" text-anchor="end">400.0 / 425 · 94.12%</text><g transform="translate(650 1)"><rect class="pill" width="104" height="42" rx="21"/><text class="value" x="52" y="27" text-anchor="middle">10.33 / 14</text></g><g transform="translate(784 1)"><rect class="pill" width="236" height="42" rx="10"/><text class="value" x="118" y="27" text-anchor="middle">$0.130401</text></g></g>
    <g transform="translate(0 344)"><text class="label" x="-30" y="28" text-anchor="end">Kimi K3 Native</text><rect class="track" width="560" height="44" rx="8"/><rect class="score" width="237" height="44" rx="8"/><text class="value" x="548" y="28" text-anchor="end">399.0 / 425 · 93.88%</text><g transform="translate(650 1)"><rect class="pill" width="104" height="42" rx="21"/><text class="value" x="52" y="27" text-anchor="middle">10.33 / 14</text></g><g transform="translate(784 1)"><rect class="pill" width="236" height="42" rx="10"/><text class="value" x="118" y="27" text-anchor="middle">$2.303873</text></g></g>
    <g transform="translate(0 412)"><text class="label" x="-30" y="28" text-anchor="end">GLM 5.2</text><rect class="track" width="560" height="44" rx="8"/><rect class="score" width="216" height="44" rx="8"/><text class="value" x="548" y="28" text-anchor="end">397.3 / 425 · 93.49%</text><g transform="translate(650 1)"><rect class="pill" width="104" height="42" rx="21"/><text class="value" x="52" y="27" text-anchor="middle">10.33 / 14</text></g><g transform="translate(784 1)"><rect class="pill" width="236" height="42" rx="10"/><text class="value" x="118" y="27" text-anchor="middle">$0.287614</text></g></g>
  </g>
  <g transform="translate(72 790)"><rect width="1296" height="62" rx="14" fill="#0d171d" stroke="#2a3c47"/><text x="22" y="27" font-size="15" font-weight="800" fill="#dfffc0">Sol leads average performance. Flash is the cost-performance outlier.</text><text class="note" x="22" y="49">Flash trails Sol by four points while costing about 98× less. Gemini trails Sol by three points and is the most consistent high scorer.</text></g>
  <text class="note" x="72" y="880">ExploitHunter model-tool behavior suite · three fixed-configuration full runs per route · verified July 17, 2026</text>
</svg>
