<svg xmlns="http://www.w3.org/2000/svg" width="1600" height="900" viewBox="0 0 1600 900" role="img">
<defs>

</defs>
<rect width="1600" height="900" fill="#fff"/>

<rect x="0" y="0" width="1600" height="900" fill="#f3f4f6"/>
<rect x="0" y="0" width="1600" height="180" fill="#17202a"/>
<text x="80" y="91" font-family="Inter, Arial, Helvetica, sans-serif" font-size="62" font-weight="950" fill="#ffffff" text-anchor="start" opacity="1" letter-spacing="0">Into the Breach: Last Line of Defense</text>
<text x="82" y="137" font-family="Inter, Arial, Helvetica, sans-serif" font-size="28" font-weight="600" fill="#cdd6df" text-anchor="start" opacity="1" letter-spacing="0">A checklist for making local compromise smaller, louder, and shorter-lived</text>

<rect x="78" y="235" width="260" height="500" rx="6" fill="#ffffff" stroke="#d9dde3" stroke-width="2" opacity="1"/>
<rect x="78" y="235" width="260" height="74" rx="6" fill="#005f73"/>
<text x="208" y="283" font-family="DM Mono, SFMono-Regular, Consolas, monospace" font-size="28" font-weight="950" fill="#ffffff" text-anchor="middle" opacity="1" letter-spacing="0">ISOLATE</text>

<circle cx="112" cy="352" r="14" fill="#005f73" stroke="none" stroke-width="0" opacity="1"/>
<path d="M105 352 L110 358 L121 342" fill="none" stroke="#ffffff" stroke-width="4" stroke-linecap="round" stroke-linejoin="round"/>
<text x="138" y="358" font-family="Inter, Arial, Helvetica, sans-serif" font-size="24" font-weight="760" fill="#17202a" text-anchor="start" opacity="1">
<tspan x="138" dy="0">Dev Containers</tspan>
<tspan x="138" dy="30">by default</tspan>
</text>


<circle cx="112" cy="444" r="14" fill="#005f73" stroke="none" stroke-width="0" opacity="1"/>
<path d="M105 444 L110 450 L121 434" fill="none" stroke="#ffffff" stroke-width="4" stroke-linecap="round" stroke-linejoin="round"/>
<text x="138" y="450" font-family="Inter, Arial, Helvetica, sans-serif" font-size="24" font-weight="760" fill="#17202a" text-anchor="start" opacity="1">
<tspan x="138" dy="0">No home</tspan>
<tspan x="138" dy="30">directory</tspan>
<tspan x="138" dy="30">mount</tspan>
</text>


<circle cx="112" cy="536" r="14" fill="#005f73" stroke="none" stroke-width="0" opacity="1"/>
<path d="M105 536 L110 542 L121 526" fill="none" stroke="#ffffff" stroke-width="4" stroke-linecap="round" stroke-linejoin="round"/>
<text x="138" y="542" font-family="Inter, Arial, Helvetica, sans-serif" font-size="24" font-weight="760" fill="#17202a" text-anchor="start" opacity="1">
<tspan x="138" dy="0">No ~/.ssh or</tspan>
<tspan x="138" dy="30">~/.aws</tspan>
<tspan x="138" dy="30">shortcut</tspan>
</text>



<rect x="382" y="235" width="260" height="500" rx="6" fill="#ffffff" stroke="#d9dde3" stroke-width="2" opacity="1"/>
<rect x="382" y="235" width="260" height="74" rx="6" fill="#0a9396"/>
<text x="512" y="283" font-family="DM Mono, SFMono-Regular, Consolas, monospace" font-size="28" font-weight="950" fill="#ffffff" text-anchor="middle" opacity="1" letter-spacing="0">REDUCE</text>

<circle cx="416" cy="352" r="14" fill="#0a9396" stroke="none" stroke-width="0" opacity="1"/>
<path d="M409 352 L414 358 L425 342" fill="none" stroke="#ffffff" stroke-width="4" stroke-linecap="round" stroke-linejoin="round"/>
<text x="442" y="358" font-family="Inter, Arial, Helvetica, sans-serif" font-size="24" font-weight="760" fill="#17202a" text-anchor="start" opacity="1">
<tspan x="442" dy="0">Project-only</tspan>
<tspan x="442" dy="30">secrets</tspan>
</text>


<circle cx="416" cy="444" r="14" fill="#0a9396" stroke="none" stroke-width="0" opacity="1"/>
<path d="M409 444 L414 450 L425 434" fill="none" stroke="#ffffff" stroke-width="4" stroke-linecap="round" stroke-linejoin="round"/>
<text x="442" y="450" font-family="Inter, Arial, Helvetica, sans-serif" font-size="24" font-weight="760" fill="#17202a" text-anchor="start" opacity="1">
<tspan x="442" dy="0">Short-lived</tspan>
<tspan x="442" dy="30">tokens</tspan>
</text>


<circle cx="416" cy="536" r="14" fill="#0a9396" stroke="none" stroke-width="0" opacity="1"/>
<path d="M409 536 L414 542 L425 526" fill="none" stroke="#ffffff" stroke-width="4" stroke-linecap="round" stroke-linejoin="round"/>
<text x="442" y="542" font-family="Inter, Arial, Helvetica, sans-serif" font-size="24" font-weight="760" fill="#17202a" text-anchor="start" opacity="1">
<tspan x="442" dy="0">Hardware-backed</tspan>
<tspan x="442" dy="30">auth</tspan>
</text>



<rect x="686" y="235" width="260" height="500" rx="6" fill="#ffffff" stroke="#d9dde3" stroke-width="2" opacity="1"/>
<rect x="686" y="235" width="260" height="74" rx="6" fill="#ee9b00"/>
<text x="816" y="283" font-family="DM Mono, SFMono-Regular, Consolas, monospace" font-size="28" font-weight="950" fill="#ffffff" text-anchor="middle" opacity="1" letter-spacing="0">DETECT</text>

<circle cx="720" cy="352" r="14" fill="#ee9b00" stroke="none" stroke-width="0" opacity="1"/>
<path d="M713 352 L718 358 L729 342" fill="none" stroke="#ffffff" stroke-width="4" stroke-linecap="round" stroke-linejoin="round"/>
<text x="746" y="358" font-family="Inter, Arial, Helvetica, sans-serif" font-size="24" font-weight="760" fill="#17202a" text-anchor="start" opacity="1">
<tspan x="746" dy="0">Canary tokens</tspan>
<tspan x="746" dy="30">in fake</tspan>
<tspan x="746" dy="30">secrets</tspan>
</text>


<circle cx="720" cy="444" r="14" fill="#ee9b00" stroke="none" stroke-width="0" opacity="1"/>
<path d="M713 444 L718 450 L729 434" fill="none" stroke="#ffffff" stroke-width="4" stroke-linecap="round" stroke-linejoin="round"/>
<text x="746" y="450" font-family="Inter, Arial, Helvetica, sans-serif" font-size="24" font-weight="760" fill="#17202a" text-anchor="start" opacity="1">
<tspan x="746" dy="0">Package</tspan>
<tspan x="746" dy="30">scanners</tspan>
</text>


<circle cx="720" cy="536" r="14" fill="#ee9b00" stroke="none" stroke-width="0" opacity="1"/>
<path d="M713 536 L718 542 L729 526" fill="none" stroke="#ffffff" stroke-width="4" stroke-linecap="round" stroke-linejoin="round"/>
<text x="746" y="542" font-family="Inter, Arial, Helvetica, sans-serif" font-size="24" font-weight="760" fill="#17202a" text-anchor="start" opacity="1">
<tspan x="746" dy="0">Unexpected-IP</tspan>
<tspan x="746" dy="30">alerts</tspan>
</text>



<rect x="990" y="235" width="260" height="500" rx="6" fill="#ffffff" stroke="#d9dde3" stroke-width="2" opacity="1"/>
<rect x="990" y="235" width="260" height="74" rx="6" fill="#ca6702"/>
<text x="1120" y="283" font-family="DM Mono, SFMono-Regular, Consolas, monospace" font-size="28" font-weight="950" fill="#ffffff" text-anchor="middle" opacity="1" letter-spacing="0">DELAY</text>

<circle cx="1024" cy="352" r="14" fill="#ca6702" stroke="none" stroke-width="0" opacity="1"/>
<path d="M1017 352 L1022 358 L1033 342" fill="none" stroke="#ffffff" stroke-width="4" stroke-linecap="round" stroke-linejoin="round"/>
<text x="1050" y="358" font-family="Inter, Arial, Helvetica, sans-serif" font-size="24" font-weight="760" fill="#17202a" text-anchor="start" opacity="1">
<tspan x="1050" dy="0">pnpm</tspan>
<tspan x="1050" dy="30">minPackageAge</tspan>
<tspan x="1050" dy="30">1440+</tspan>
</text>


<circle cx="1024" cy="444" r="14" fill="#ca6702" stroke="none" stroke-width="0" opacity="1"/>
<path d="M1017 444 L1022 450 L1033 434" fill="none" stroke="#ffffff" stroke-width="4" stroke-linecap="round" stroke-linejoin="round"/>
<text x="1050" y="450" font-family="Inter, Arial, Helvetica, sans-serif" font-size="24" font-weight="760" fill="#17202a" text-anchor="start" opacity="1">
<tspan x="1050" dy="0">Prefer 2880</tspan>
<tspan x="1050" dy="30">for critical</tspan>
<tspan x="1050" dy="30">work</tspan>
</text>


<circle cx="1024" cy="536" r="14" fill="#ca6702" stroke="none" stroke-width="0" opacity="1"/>
<path d="M1017 536 L1022 542 L1033 526" fill="none" stroke="#ffffff" stroke-width="4" stroke-linecap="round" stroke-linejoin="round"/>
<text x="1050" y="542" font-family="Inter, Arial, Helvetica, sans-serif" font-size="24" font-weight="760" fill="#17202a" text-anchor="start" opacity="1">
<tspan x="1050" dy="0">Watch newborn</tspan>
<tspan x="1050" dy="30">dependencies</tspan>
</text>



<rect x="1294" y="235" width="260" height="500" rx="6" fill="#ffffff" stroke="#d9dde3" stroke-width="2" opacity="1"/>
<rect x="1294" y="235" width="260" height="74" rx="6" fill="#ae2012"/>
<text x="1424" y="283" font-family="DM Mono, SFMono-Regular, Consolas, monospace" font-size="28" font-weight="950" fill="#ffffff" text-anchor="middle" opacity="1" letter-spacing="0">RESPOND</text>

<circle cx="1328" cy="352" r="14" fill="#ae2012" stroke="none" stroke-width="0" opacity="1"/>
<path d="M1321 352 L1326 358 L1337 342" fill="none" stroke="#ffffff" stroke-width="4" stroke-linecap="round" stroke-linejoin="round"/>
<text x="1354" y="358" font-family="Inter, Arial, Helvetica, sans-serif" font-size="24" font-weight="760" fill="#17202a" text-anchor="start" opacity="1">
<tspan x="1354" dy="0">Rotate first</tspan>
</text>


<circle cx="1328" cy="444" r="14" fill="#ae2012" stroke="none" stroke-width="0" opacity="1"/>
<path d="M1321 444 L1326 450 L1337 434" fill="none" stroke="#ffffff" stroke-width="4" stroke-linecap="round" stroke-linejoin="round"/>
<text x="1354" y="450" font-family="Inter, Arial, Helvetica, sans-serif" font-size="24" font-weight="760" fill="#17202a" text-anchor="start" opacity="1">
<tspan x="1354" dy="0">Check</tspan>
<tspan x="1354" dy="30">persistence</tspan>
</text>


<circle cx="1328" cy="536" r="14" fill="#ae2012" stroke="none" stroke-width="0" opacity="1"/>
<path d="M1321 536 L1326 542 L1337 526" fill="none" stroke="#ffffff" stroke-width="4" stroke-linecap="round" stroke-linejoin="round"/>
<text x="1354" y="542" font-family="Inter, Arial, Helvetica, sans-serif" font-size="24" font-weight="760" fill="#17202a" text-anchor="start" opacity="1">
<tspan x="1354" dy="0">Kill sessions</tspan>
<tspan x="1354" dy="30">and notify</tspan>
</text>


<rect x="80" y="785" width="1440" height="52" rx="6" fill="#17202a" stroke="none" stroke-width="0" opacity="1"/>
<text x="800" y="820" font-family="Inter, Arial, Helvetica, sans-serif" font-size="27" font-weight="850" fill="#ffffff" text-anchor="middle" opacity="1" letter-spacing="0">The win is not perfect behavior. The win is a compromised process with nowhere interesting to go.</text>

</svg>