<svg aria-roledescription="gitGraph" role="graphics-document document" viewBox="-101.66954803466797 -8 438.0523681640625 393.7475280761719" height="100%" xmlns="http://www.w3.org/2000/svg" width="438.0523681640625" id="graph-div" style="max-width: 100%;" xmlns:xlink="http://www.w3.org/1999/xlink"><style>@import url("https://cdnjs.cloudflare.com/ajax/libs/font-awesome/6.4.0/css/all.min.css");'</style><style>#graph-div{font-family:"trebuchet ms",verdana,arial,sans-serif;font-size:16px;fill:#333;}#graph-div .error-icon{fill:hsl(220.5882352941, 100%, 98.3333333333%);}#graph-div .error-text{fill:rgb(8.5000000002, 5.7500000001, 0);stroke:rgb(8.5000000002, 5.7500000001, 0);}#graph-div .edge-thickness-normal{stroke-width:2px;}#graph-div .edge-thickness-thick{stroke-width:3.5px;}#graph-div .edge-pattern-solid{stroke-dasharray:0;}#graph-div .edge-pattern-dashed{stroke-dasharray:3;}#graph-div .edge-pattern-dotted{stroke-dasharray:2;}#graph-div .marker{fill:#0b0b0b;stroke:#0b0b0b;}#graph-div .marker.cross{stroke:#0b0b0b;}#graph-div svg{font-family:"trebuchet ms",verdana,arial,sans-serif;font-size:16px;}#graph-div .commit-id,#graph-div .commit-msg,#graph-div .branch-label{fill:lightgrey;color:lightgrey;font-family:'trebuchet ms',verdana,arial,sans-serif;font-family:var(--mermaid-font-family);}#graph-div .branch-label0{fill:#ffffff;}#graph-div .commit0{stroke:hsl(40.5882352941, 100%, 68.3333333333%);fill:hsl(40.5882352941, 100%, 68.3333333333%);}#graph-div .commit-highlight0{stroke:rgb(0, 52.2500000001, 161.5000000002);fill:rgb(0, 52.2500000001, 161.5000000002);}#graph-div .label0{fill:hsl(40.5882352941, 100%, 68.3333333333%);}#graph-div .arrow0{stroke:hsl(40.5882352941, 100%, 68.3333333333%);}#graph-div .branch-label1{fill:#ffffff;}#graph-div .commit1{stroke:hsl(-79.4117647059, 100%, 68.3333333333%);fill:hsl(-79.4117647059, 100%, 68.3333333333%);}#graph-div .commit-highlight1{stroke:rgb(52.2500000001, 161.5000000002, 0);fill:rgb(52.2500000001, 161.5000000002, 0);}#graph-div .label1{fill:hsl(-79.4117647059, 100%, 68.3333333333%);}#graph-div .arrow1{stroke:hsl(-79.4117647059, 100%, 68.3333333333%);}#graph-div .branch-label2{fill:#ffffff;}#graph-div .commit2{stroke:hsl(220.5882352941, 100%, 73.3333333333%);fill:hsl(220.5882352941, 100%, 73.3333333333%);}#graph-div .commit-highlight2{stroke:rgb(136.0000000002, 92.0000000001, 0);fill:rgb(136.0000000002, 92.0000000001, 0);}#graph-div .label2{fill:hsl(220.5882352941, 100%, 73.3333333333%);}#graph-div .arrow2{stroke:hsl(220.5882352941, 100%, 73.3333333333%);}#graph-div .branch-label3{fill:#ffffff;}#graph-div .commit3{stroke:hsl(10.5882352941, 100%, 68.3333333333%);fill:hsl(10.5882352941, 100%, 68.3333333333%);}#graph-div .commit-highlight3{stroke:rgb(0, 133.0000000002, 161.5000000002);fill:rgb(0, 133.0000000002, 161.5000000002);}#graph-div .label3{fill:hsl(10.5882352941, 100%, 68.3333333333%);}#graph-div .arrow3{stroke:hsl(10.5882352941, 100%, 68.3333333333%);}#graph-div .branch-label4{fill:#ffffff;}#graph-div .commit4{stroke:hsl(-19.4117647059, 100%, 68.3333333333%);fill:hsl(-19.4117647059, 100%, 68.3333333333%);}#graph-div .commit-highlight4{stroke:rgb(0, 161.5000000002, 109.2500000001);fill:rgb(0, 161.5000000002, 109.2500000001);}#graph-div .label4{fill:hsl(-19.4117647059, 100%, 68.3333333333%);}#graph-div .arrow4{stroke:hsl(-19.4117647059, 100%, 68.3333333333%);}#graph-div .branch-label5{fill:#ffffff;}#graph-div .commit5{stroke:hsl(-49.4117647059, 100%, 68.3333333333%);fill:hsl(-49.4117647059, 100%, 68.3333333333%);}#graph-div .commit-highlight5{stroke:rgb(0, 161.5000000002, 28.5);fill:rgb(0, 161.5000000002, 28.5);}#graph-div .label5{fill:hsl(-49.4117647059, 100%, 68.3333333333%);}#graph-div .arrow5{stroke:hsl(-49.4117647059, 100%, 68.3333333333%);}#graph-div .branch-label6{fill:#333;}#graph-div .commit6{stroke:hsl(100.5882352941, 100%, 68.3333333333%);fill:hsl(100.5882352941, 100%, 68.3333333333%);}#graph-div .commit-highlight6{stroke:rgb(109.2500000001, 0, 161.5000000002);fill:rgb(109.2500000001, 0, 161.5000000002);}#graph-div .label6{fill:hsl(100.5882352941, 100%, 68.3333333333%);}#graph-div .arrow6{stroke:hsl(100.5882352941, 100%, 68.3333333333%);}#graph-div .branch-label7{fill:#333;}#graph-div .commit7{stroke:hsl(160.5882352941, 100%, 68.3333333333%);fill:hsl(160.5882352941, 100%, 68.3333333333%);}#graph-div .commit-highlight7{stroke:rgb(161.5000000002, 0, 52.2500000001);fill:rgb(161.5000000002, 0, 52.2500000001);}#graph-div .label7{fill:hsl(160.5882352941, 100%, 68.3333333333%);}#graph-div .arrow7{stroke:hsl(160.5882352941, 100%, 68.3333333333%);}#graph-div .branch{stroke-width:1;stroke:#0b0b0b;stroke-dasharray:2;}#graph-div .commit-label{font-size:10px;fill:rgb(11.0000000001, 34.0000000002, 0);}#graph-div .commit-label-bkg{font-size:10px;fill:hsl(-79.4117647059, 100%, 93.3333333333%);opacity:0.5;}#graph-div .tag-label{font-size:10px;fill:#333333;}#graph-div .tag-label-bkg{fill:#efefef;stroke:#ffffff;}#graph-div .tag-hole{fill:#333;}#graph-div .commit-merge{stroke:#fff4dd;fill:#fff4dd;}#graph-div .commit-reverse{stroke:#fff4dd;fill:#fff4dd;stroke-width:3;}#graph-div .commit-highlight-inner{stroke:#fff4dd;fill:#fff4dd;}#graph-div .arrow{stroke-width:8;stroke-linecap:round;fill:none;}#graph-div .gitTitleText{text-anchor:middle;font-size:18px;fill:#333;}#graph-div :root{--mermaid-font-family:"trebuchet ms",verdana,arial,sans-serif;}</style><g></g><g class="commit-bullets"></g><g class="commit-labels"></g><g><line class="branch branch0" y2="330" x2="0" y1="30" x1="0"></line><rect height="22.59375" width="53" y="0" x="-27.5" ry="4" rx="4" class="branchLabelBkg label0"></rect><g class="branchLabel"><g transform="translate(-22.5, 0)" class="label branch-label0"><text><tspan class="row" x="0" dy="1em" xml:space="preserve">main</tspan></text></g></g><line class="branch branch1" y2="330" x2="107.5" y1="30" x1="107.5"></line><rect height="22.59375" width="153.9375" y="0" x="29.53125" ry="4" rx="4" class="branchLabelBkg label1"></rect><g class="branchLabel"><g transform="translate(34.53125, 0)" class="label branch-label1"><text><tspan class="row" x="0" dy="1em" xml:space="preserve">feat/login-redirect</tspan></text></g></g><line class="branch branch2" y2="330" x2="265.46875" y1="30" x1="265.46875"></line><rect height="22.59375" width="127.828125" y="0" x="200.5546875" ry="4" rx="4" class="branchLabelBkg label2"></rect><g class="branchLabel"><g transform="translate(205.5546875, 0)" class="label branch-label2"><text><tspan class="row" x="0" dy="1em" xml:space="preserve">fix/auth-router</tspan></text></g></g></g><g class="commit-arrows"><path class="arrow arrow0" d="M 0 40 L 0 40  0 90 L 0 90"></path><path class="arrow arrow1" d="M 0 90 L 87.5 90 A 20 20, 0, 0, 1, 107.5 110 L 107.5 140"></path><path class="arrow arrow2" d="M 0 90 L 245.46875 90 A 20 20, 0, 0, 1, 265.46875 110 L 265.46875 190"></path><path class="arrow arrow0" d="M 0 90 L 0 90  0 240 L 0 240"></path><path class="arrow arrow2" d="M 265.46875 190 L 265.46875 220 A 20 20, 0, 0, 1, 245.46875 240 L 0 240"></path><path class="arrow arrow0" d="M 0 240 L 0 240  0 290 L 0 290"></path><path class="arrow arrow0" d="M 107.5 140 L 63.75 140 A 10 10, 0, 0, 0, 53.75 150 L 53.75 280 A 10 10, 0, 0, 1, 43.75 290 L 0 290"></path></g><g class="commit-bullets"><circle class="commit abcdef commit0" r="10" cy="40" cx="0"></circle><circle class="commit bbcccd commit0" r="10" cy="90" cx="0"></circle><circle class="commit feat commit1" r="10" cy="140" cx="107.5"></circle><circle class="commit fix commit2" r="10" cy="190" cx="265.46875"></circle><circle class="commit fix/auth-router ➡️ commit0" r="9" cy="240" cx="0"></circle><circle class="commit commit-merge fix/auth-router ➡️ commit0" r="6" cy="240" cx="0"></circle><circle class="commit feat/login-redirect ➡️ commit0" r="9" cy="290" cx="0"></circle><circle class="commit commit-merge feat/login-redirect ➡️ commit0" r="6" cy="290" cx="0"></circle></g><g class="commit-labels"><g><rect transform="rotate(-45, 0, 40)" height="15.625" width="34.5" y="28" x="-51.5" class="commit-label-bkg"></rect><text transform="rotate(-45, 0, 40)" class="commit-label" y="39.625" x="-46.5">abcdef</text></g><polygon transform="translate(12,12) rotate(45, 0,30)" points="0,32
            0,28
            10,22.1875
            56.5,22.1875
            56.5,37.8125
            10,37.8125" class="tag-label-bkg"></polygon><circle transform="translate(12,12) rotate(45, 0,30)" class="tag-hole" r="1.5" cy="30" cx="2"></circle><text transform="translate(14,14) rotate(45, 0,30)" x="5" class="tag-label" y="33">🏷️ v1.0.0</text><g><rect transform="rotate(-45, 0, 90)" height="15.625" width="35.578125" y="78" x="-52.578125" class="commit-label-bkg"></rect><text transform="rotate(-45, 0, 90)" class="commit-label" y="89.625" x="-47.578125">bbcccd</text></g><polygon transform="translate(12,12) rotate(45, 0,80)" points="0,82
            0,78
            10,72.1875
            56.5,72.1875
            56.5,87.8125
            10,87.8125" class="tag-label-bkg"></polygon><circle transform="translate(12,12) rotate(45, 0,80)" class="tag-hole" r="1.5" cy="80" cx="2"></circle><text transform="translate(14,14) rotate(45, 0,80)" x="5" class="tag-label" y="83">🏷️ v1.0.1</text><g><rect transform="rotate(-45, 107.5, 140)" height="15.625" width="22.375" y="128" x="68.125" class="commit-label-bkg"></rect><text transform="rotate(-45, 107.5, 140)" class="commit-label" y="139.625" x="73.125">feat</text></g><g><rect transform="rotate(-45, 265.46875, 190)" height="15.625" width="15.5625" y="178" x="232.90625" class="commit-label-bkg"></rect><text transform="rotate(-45, 265.46875, 190)" class="commit-label" y="189.625" x="237.90625">fix</text></g><g><rect transform="rotate(-45, 0, 240)" height="15.625" width="87.15625" y="228" x="-104.15625" class="commit-label-bkg"></rect><text transform="rotate(-45, 0, 240)" class="commit-label" y="239.625" x="-99.15625">fix/auth-router ➡️</text></g><g><rect transform="rotate(-45, 0, 290)" height="15.625" width="103.46875" y="278" x="-120.46875" class="commit-label-bkg"></rect><text transform="rotate(-45, 0, 290)" class="commit-label" y="289.625" x="-115.46875">feat/login-redirect ➡️</text></g><polygon transform="translate(12,12) rotate(45, 0,280)" points="0,282
            0,278
            10,272.1875
            56.5,272.1875
            56.5,287.8125
            10,287.8125" class="tag-label-bkg"></polygon><circle transform="translate(12,12) rotate(45, 0,280)" class="tag-hole" r="1.5" cy="280" cx="2"></circle><text transform="translate(14,14) rotate(45, 0,280)" x="5" class="tag-label" y="283">🏷️ v1.0.2</text></g></svg>