<svg aria-roledescription="gitGraph" role="graphics-document document" viewBox="-53.663631439208984 -8 673.9292602539062 596" height="100%" xmlns="http://www.w3.org/2000/svg" width="673.9292602539062" id="graph-div" style="max-width: 100%;" xmlns:xlink="http://www.w3.org/1999/xlink"><style>@import url("https://cdnjs.cloudflare.com/ajax/libs/font-awesome/6.4.0/css/all.min.css");'</style><style>#graph-div{font-family:"trebuchet ms",verdana,arial,sans-serif;font-size:16px;fill:#333;}#graph-div .error-icon{fill:hsl(220.5882352941, 100%, 98.3333333333%);}#graph-div .error-text{fill:rgb(8.5000000002, 5.7500000001, 0);stroke:rgb(8.5000000002, 5.7500000001, 0);}#graph-div .edge-thickness-normal{stroke-width:2px;}#graph-div .edge-thickness-thick{stroke-width:3.5px;}#graph-div .edge-pattern-solid{stroke-dasharray:0;}#graph-div .edge-pattern-dashed{stroke-dasharray:3;}#graph-div .edge-pattern-dotted{stroke-dasharray:2;}#graph-div .marker{fill:#0b0b0b;stroke:#0b0b0b;}#graph-div .marker.cross{stroke:#0b0b0b;}#graph-div svg{font-family:"trebuchet ms",verdana,arial,sans-serif;font-size:16px;}#graph-div .commit-id,#graph-div .commit-msg,#graph-div .branch-label{fill:lightgrey;color:lightgrey;font-family:'trebuchet ms',verdana,arial,sans-serif;font-family:var(--mermaid-font-family);}#graph-div .branch-label0{fill:#ffffff;}#graph-div .commit0{stroke:hsl(40.5882352941, 100%, 68.3333333333%);fill:hsl(40.5882352941, 100%, 68.3333333333%);}#graph-div .commit-highlight0{stroke:rgb(0, 52.2500000001, 161.5000000002);fill:rgb(0, 52.2500000001, 161.5000000002);}#graph-div .label0{fill:hsl(40.5882352941, 100%, 68.3333333333%);}#graph-div .arrow0{stroke:hsl(40.5882352941, 100%, 68.3333333333%);}#graph-div .branch-label1{fill:#ffffff;}#graph-div .commit1{stroke:hsl(-79.4117647059, 100%, 68.3333333333%);fill:hsl(-79.4117647059, 100%, 68.3333333333%);}#graph-div .commit-highlight1{stroke:rgb(52.2500000001, 161.5000000002, 0);fill:rgb(52.2500000001, 161.5000000002, 0);}#graph-div .label1{fill:hsl(-79.4117647059, 100%, 68.3333333333%);}#graph-div .arrow1{stroke:hsl(-79.4117647059, 100%, 68.3333333333%);}#graph-div .branch-label2{fill:#ffffff;}#graph-div .commit2{stroke:hsl(220.5882352941, 100%, 73.3333333333%);fill:hsl(220.5882352941, 100%, 73.3333333333%);}#graph-div .commit-highlight2{stroke:rgb(136.0000000002, 92.0000000001, 0);fill:rgb(136.0000000002, 92.0000000001, 0);}#graph-div .label2{fill:hsl(220.5882352941, 100%, 73.3333333333%);}#graph-div .arrow2{stroke:hsl(220.5882352941, 100%, 73.3333333333%);}#graph-div .branch-label3{fill:#ffffff;}#graph-div .commit3{stroke:hsl(10.5882352941, 100%, 68.3333333333%);fill:hsl(10.5882352941, 100%, 68.3333333333%);}#graph-div .commit-highlight3{stroke:rgb(0, 133.0000000002, 161.5000000002);fill:rgb(0, 133.0000000002, 161.5000000002);}#graph-div .label3{fill:hsl(10.5882352941, 100%, 68.3333333333%);}#graph-div .arrow3{stroke:hsl(10.5882352941, 100%, 68.3333333333%);}#graph-div .branch-label4{fill:#ffffff;}#graph-div .commit4{stroke:hsl(-19.4117647059, 100%, 68.3333333333%);fill:hsl(-19.4117647059, 100%, 68.3333333333%);}#graph-div .commit-highlight4{stroke:rgb(0, 161.5000000002, 109.2500000001);fill:rgb(0, 161.5000000002, 109.2500000001);}#graph-div .label4{fill:hsl(-19.4117647059, 100%, 68.3333333333%);}#graph-div .arrow4{stroke:hsl(-19.4117647059, 100%, 68.3333333333%);}#graph-div .branch-label5{fill:#ffffff;}#graph-div .commit5{stroke:hsl(-49.4117647059, 100%, 68.3333333333%);fill:hsl(-49.4117647059, 100%, 68.3333333333%);}#graph-div .commit-highlight5{stroke:rgb(0, 161.5000000002, 28.5);fill:rgb(0, 161.5000000002, 28.5);}#graph-div .label5{fill:hsl(-49.4117647059, 100%, 68.3333333333%);}#graph-div .arrow5{stroke:hsl(-49.4117647059, 100%, 68.3333333333%);}#graph-div .branch-label6{fill:#333;}#graph-div .commit6{stroke:hsl(100.5882352941, 100%, 68.3333333333%);fill:hsl(100.5882352941, 100%, 68.3333333333%);}#graph-div .commit-highlight6{stroke:rgb(109.2500000001, 0, 161.5000000002);fill:rgb(109.2500000001, 0, 161.5000000002);}#graph-div .label6{fill:hsl(100.5882352941, 100%, 68.3333333333%);}#graph-div .arrow6{stroke:hsl(100.5882352941, 100%, 68.3333333333%);}#graph-div .branch-label7{fill:#333;}#graph-div .commit7{stroke:hsl(160.5882352941, 100%, 68.3333333333%);fill:hsl(160.5882352941, 100%, 68.3333333333%);}#graph-div .commit-highlight7{stroke:rgb(161.5000000002, 0, 52.2500000001);fill:rgb(161.5000000002, 0, 52.2500000001);}#graph-div .label7{fill:hsl(160.5882352941, 100%, 68.3333333333%);}#graph-div .arrow7{stroke:hsl(160.5882352941, 100%, 68.3333333333%);}#graph-div .branch{stroke-width:1;stroke:#0b0b0b;stroke-dasharray:2;}#graph-div .commit-label{font-size:10px;fill:rgb(11.0000000001, 34.0000000002, 0);}#graph-div .commit-label-bkg{font-size:10px;fill:hsl(-79.4117647059, 100%, 93.3333333333%);opacity:0.5;}#graph-div .tag-label{font-size:10px;fill:#333333;}#graph-div .tag-label-bkg{fill:#efefef;stroke:#ffffff;}#graph-div .tag-hole{fill:#333;}#graph-div .commit-merge{stroke:#fff4dd;fill:#fff4dd;}#graph-div .commit-reverse{stroke:#fff4dd;fill:#fff4dd;stroke-width:3;}#graph-div .commit-highlight-inner{stroke:#fff4dd;fill:#fff4dd;}#graph-div .arrow{stroke-width:8;stroke-linecap:round;fill:none;}#graph-div .gitTitleText{text-anchor:middle;font-size:18px;fill:#333;}#graph-div :root{--mermaid-font-family:"trebuchet ms",verdana,arial,sans-serif;}</style><g></g><g class="commit-bullets"></g><g class="commit-labels"></g><g><line class="branch branch0" y2="580" x2="0" y1="30" x1="0"></line><rect height="22.59375" width="53" y="0" x="-27.5" ry="4" rx="4" class="branchLabelBkg label0"></rect><g class="branchLabel"><g transform="translate(-22.5, 0)" class="label branch-label0"><text><tspan class="row" x="0" dy="1em" xml:space="preserve">main</tspan></text></g></g><line class="branch branch1" y2="580" x2="107.5" y1="30" x1="107.5"></line><rect height="22.59375" width="140.203125" y="0" x="36.3984375" ry="4" rx="4" class="branchLabelBkg label1"></rect><g class="branchLabel"><g transform="translate(41.3984375, 0)" class="label branch-label1"><text><tspan class="row" x="0" dy="1em" xml:space="preserve">feat/login-modal</tspan></text></g></g><line class="branch branch2" y2="580" x2="258.6015625" y1="30" x1="258.6015625"></line><rect height="22.59375" width="153.9375" y="0" x="180.6328125" ry="4" rx="4" class="branchLabelBkg label2"></rect><g class="branchLabel"><g transform="translate(185.6328125, 0)" class="label branch-label2"><text><tspan class="row" x="0" dy="1em" xml:space="preserve">feat/login-redirect</tspan></text></g></g><line class="branch branch3" y2="580" x2="416.5703125" y1="30" x1="416.5703125"></line><rect height="22.59375" width="127.828125" y="0" x="351.65625" ry="4" rx="4" class="branchLabelBkg label3"></rect><g class="branchLabel"><g transform="translate(356.65625, 0)" class="label branch-label3"><text><tspan class="row" x="0" dy="1em" xml:space="preserve">fix/auth-router</tspan></text></g></g><line class="branch branch4" y2="580" x2="561.484375" y1="30" x1="561.484375"></line><rect height="22.59375" width="103.5625" y="0" x="508.703125" ry="4" rx="4" class="branchLabelBkg label4"></rect><g class="branchLabel"><g transform="translate(513.703125, 0)" class="label branch-label4"><text><tspan class="row" x="0" dy="1em" xml:space="preserve">release/123</tspan></text></g></g></g><g class="commit-arrows"><path class="arrow arrow0" d="M 0 40 L 0 40  0 90 L 0 90"></path><path class="arrow arrow1" d="M 0 90 L 87.5 90 A 20 20, 0, 0, 1, 107.5 110 L 107.5 140"></path><path class="arrow arrow2" d="M 0 90 L 238.6015625 90 A 20 20, 0, 0, 1, 258.6015625 110 L 258.6015625 190"></path><path class="arrow arrow2" d="M 258.6015625 190 L 258.6015625 190  258.6015625 240 L 258.6015625 240"></path><path class="arrow arrow3" d="M 0 90 L 396.5703125 90 A 20 20, 0, 0, 1, 416.5703125 110 L 416.5703125 290"></path><path class="arrow arrow3" d="M 416.5703125 290 L 416.5703125 290  416.5703125 340 L 416.5703125 340"></path><path class="arrow arrow4" d="M 0 90 L 541.484375 90 A 20 20, 0, 0, 1, 561.484375 110 L 561.484375 390"></path><path class="arrow arrow4" d="M 258.6015625 240 L 541.484375 240 A 20 20, 0, 0, 1, 561.484375 260 L 561.484375 390"></path><path class="arrow arrow4" d="M 561.484375 390 L 561.484375 390  561.484375 440 L 561.484375 440"></path><path class="arrow arrow4" d="M 107.5 140 L 324.4921875 140 A 10 10, 0, 0, 1, 334.4921875 150 L 334.4921875 430 A 10 10, 0, 0, 0, 344.4921875 440 L 561.484375 440"></path><path class="arrow arrow4" d="M 561.484375 440 L 561.484375 440  561.484375 490 L 561.484375 490"></path><path class="arrow arrow4" d="M 416.5703125 340 L 479.02734375 340 A 10 10, 0, 0, 1, 489.02734375 350 L 489.02734375 480 A 10 10, 0, 0, 0, 499.02734375 490 L 561.484375 490"></path><path class="arrow arrow0" d="M 0 90 L 0 90  0 540 L 0 540"></path><path class="arrow arrow4" d="M 561.484375 490 L 561.484375 520 A 20 20, 0, 0, 1, 541.484375 540 L 0 540"></path></g><g class="commit-bullets"><circle class="commit abcdef commit0" r="10" cy="40" cx="0"></circle><circle class="commit bbcccd commit0" r="10" cy="90" cx="0"></circle><circle class="commit feat(ui): ... commit1" r="10" cy="140" cx="107.5"></circle><circle class="commit feat(service): ... commit2" r="10" cy="190" cx="258.6015625"></circle><circle class="commit docs(auth) commit2" r="10" cy="240" cx="258.6015625"></circle><circle class="commit fix(component): 1 commit3" r="10" cy="290" cx="416.5703125"></circle><circle class="commit fix(component): 2 commit3" r="10" cy="340" cx="416.5703125"></circle><circle class="commit merge redirect... commit4" r="9" cy="390" cx="561.484375"></circle><circle class="commit commit-merge merge redirect... commit4" r="6" cy="390" cx="561.484375"></circle><circle class="commit merge modal... commit4" r="9" cy="440" cx="561.484375"></circle><circle class="commit commit-merge merge modal... commit4" r="6" cy="440" cx="561.484375"></circle><circle class="commit merge fix commit4" r="9" cy="490" cx="561.484375"></circle><circle class="commit commit-merge merge fix commit4" r="6" cy="490" cx="561.484375"></circle><circle class="commit 10-f40ad4f commit0" r="9" cy="540" cx="0"></circle><circle class="commit commit-merge 10-f40ad4f commit0" r="6" cy="540" cx="0"></circle></g><g class="commit-labels"><g><rect transform="rotate(-45, 0, 40)" height="15.625" width="34.5" y="28" x="-51.5" class="commit-label-bkg"></rect><text transform="rotate(-45, 0, 40)" class="commit-label" y="39.625" x="-46.5">abcdef</text></g><polygon transform="translate(12,12) rotate(45, 0,30)" points="0,32
            0,28
            10,22.1875
            41.984375,22.1875
            41.984375,37.8125
            10,37.8125" class="tag-label-bkg"></polygon><circle transform="translate(12,12) rotate(45, 0,30)" class="tag-hole" r="1.5" cy="30" cx="2"></circle><text transform="translate(14,14) rotate(45, 0,30)" x="5" class="tag-label" y="33">v1.0.0</text><g><rect transform="rotate(-45, 0, 90)" height="15.625" width="35.578125" y="78" x="-52.578125" class="commit-label-bkg"></rect><text transform="rotate(-45, 0, 90)" class="commit-label" y="89.625" x="-47.578125">bbcccd</text></g><polygon transform="translate(12,12) rotate(45, 0,80)" points="0,82
            0,78
            10,72.1875
            41.984375,72.1875
            41.984375,87.8125
            10,87.8125" class="tag-label-bkg"></polygon><circle transform="translate(12,12) rotate(45, 0,80)" class="tag-hole" r="1.5" cy="80" cx="2"></circle><text transform="translate(14,14) rotate(45, 0,80)" x="5" class="tag-label" y="83">v1.0.1</text><g><rect transform="rotate(-45, 107.5, 140)" height="15.625" width="55.734375" y="128" x="34.765625" class="commit-label-bkg"></rect><text transform="rotate(-45, 107.5, 140)" class="commit-label" y="139.625" x="39.765625">feat(ui): ...</text></g><g><rect transform="rotate(-45, 258.6015625, 190)" height="15.625" width="78.96875" y="178" x="162.6328125" class="commit-label-bkg"></rect><text transform="rotate(-45, 258.6015625, 190)" class="commit-label" y="189.625" x="167.6328125">feat(service): ...</text></g><g><rect transform="rotate(-45, 258.6015625, 240)" height="15.625" width="51.4375" y="228" x="190.1640625" class="commit-label-bkg"></rect><text transform="rotate(-45, 258.6015625, 240)" class="commit-label" y="239.625" x="195.1640625">docs(auth)</text></g><g><rect transform="rotate(-45, 416.5703125, 290)" height="15.625" width="84.734375" y="278" x="314.8359375" class="commit-label-bkg"></rect><text transform="rotate(-45, 416.5703125, 290)" class="commit-label" y="289.625" x="319.8359375">fix(component): 1</text></g><g><rect transform="rotate(-45, 416.5703125, 340)" height="15.625" width="84.734375" y="328" x="314.8359375" class="commit-label-bkg"></rect><text transform="rotate(-45, 416.5703125, 340)" class="commit-label" y="339.625" x="319.8359375">fix(component): 2</text></g><g><rect transform="rotate(-45, 561.484375, 390)" height="15.625" width="82.171875" y="378" x="462.3125" class="commit-label-bkg"></rect><text transform="rotate(-45, 561.484375, 390)" class="commit-label" y="389.625" x="467.3125">merge redirect...</text></g><g><rect transform="rotate(-45, 561.484375, 440)" height="15.625" width="73.59375" y="428" x="470.890625" class="commit-label-bkg"></rect><text transform="rotate(-45, 561.484375, 440)" class="commit-label" y="439.625" x="475.890625">merge modal...</text></g><g><rect transform="rotate(-45, 561.484375, 490)" height="15.625" width="46.6875" y="478" x="497.796875" class="commit-label-bkg"></rect><text transform="rotate(-45, 561.484375, 490)" class="commit-label" y="489.625" x="502.796875">merge fix</text></g><polygon transform="translate(12,12) rotate(45, 0,530)" points="0,532
            0,528
            10,522.1875
            41.984375,522.1875
            41.984375,537.8125
            10,537.8125" class="tag-label-bkg"></polygon><circle transform="translate(12,12) rotate(45, 0,530)" class="tag-hole" r="1.5" cy="530" cx="2"></circle><text transform="translate(14,14) rotate(45, 0,530)" x="5" class="tag-label" y="533">v1.0.2</text></g></svg>